HIERARCHY
ROOT Hips
{
	OFFSET -0.179506 -22.333345 2.821913
	CHANNELS 6 Xposition Yposition Zposition Zrotation Yrotation Xrotation 
	JOINT LeftUpLeg
	{
		OFFSET 6.951974 -9.140623 -0.681533
		CHANNELS 3 Zrotation Yrotation Xrotation
		JOINT LeftLeg
		{
			OFFSET 3.427654 -37.519855 -0.449580
			CHANNELS 3 Zrotation Yrotation Xrotation
			JOINT LeftFoot
			{
				OFFSET -1.359570 -39.796059 -4.369333
				CHANNELS 3 Zrotation Yrotation Xrotation
				JOINT LeftToe
				{
					OFFSET 2.635814 -5.579078 11.928840
					CHANNELS 3 Zrotation Yrotation Xrotation
					End Site
					{
						OFFSET 0.000000 0.000000 0.000000
					}
				}
			}
		}
	}
	JOINT RightUpLeg
	{
		OFFSET -6.767048 -9.052170 -0.431982
		CHANNELS 3 Zrotation Yrotation Xrotation
		JOINT RightLeg
		{
			OFFSET -3.829005 -38.256897 -0.885003
			CHANNELS 3 Zrotation Yrotation Xrotation
			JOINT RightFoot
			{
				OFFSET 1.577377 -39.841461 -4.231180
				CHANNELS 3 Zrotation Yrotation Xrotation
				JOINT RightToe
				{
					OFFSET -2.537174 -4.814398 12.334795
					CHANNELS 3 Zrotation Yrotation Xrotation
					End Site
					{
						OFFSET 0.000000 0.000000 0.000000
					}
				}
			}
		}
	}
	JOINT Spine
	{
		OFFSET -0.253288 10.896323 -2.669631
		CHANNELS 3 Zrotation Yrotation Xrotation
		JOINT Spine1
		{
			OFFSET 0.548704 13.518043 0.109247
			CHANNELS 3 Zrotation Yrotation Xrotation
			JOINT Spine2
			{
				OFFSET 0.145701 5.292222 2.542457
				CHANNELS 3 Zrotation Yrotation Xrotation
				JOINT Neck
				{
					OFFSET -0.277840 21.387037 -4.285703
					CHANNELS 3 Zrotation Yrotation Xrotation
					JOINT Head
					{
						OFFSET 0.515184 6.496960 5.134897
						CHANNELS 3 Zrotation Yrotation Xrotation
						End Site
						{
							OFFSET 0.000000 0.000000 0.000000
						}
					}
				}
				JOINT LeftShoulder
				{
					OFFSET 7.884473 12.174932 -3.408961
					CHANNELS 3 Zrotation Yrotation Xrotation
					JOINT LeftArm
					{
						OFFSET 9.097692 3.046888 -0.886815
						CHANNELS 3 Zrotation Yrotation Xrotation
						JOINT LeftForeArm
						{
							OFFSET 25.961220 -1.277207 -2.745643
							CHANNELS 3 Zrotation Yrotation Xrotation
							JOINT LeftHand
							{
								OFFSET 24.923361 0.898606 -0.117091
								CHANNELS 3 Zrotation Yrotation Xrotation
								End Site
								{
									OFFSET 0.000000 0.000000 0.000000
								}
							}
						}
					}
				}
				JOINT RightShoulder
				{
					OFFSET -8.175920 11.883285 -3.861528
					CHANNELS 3 Zrotation Yrotation Xrotation
					JOINT RightArm
					{
						OFFSET -9.601238 3.255117 -0.914307
						CHANNELS 3 Zrotation Yrotation Xrotation
						JOINT RightForeArm
						{
							OFFSET -25.374195 -1.332924 -2.140099
							CHANNELS 3 Zrotation Yrotation Xrotation
							JOINT RightHand
							{
								OFFSET -25.529810 0.777228 -0.555919
								CHANNELS 3 Zrotation Yrotation Xrotation
								End Site
								{
									OFFSET 0.000000 0.000000 0.000000
								}
							}
						}
					}
				}
			}
		}
	}
}
MOTION
Frames: 9
Frame Time: 0.033333
-20.675467 -23.463818 97.822899 -67.309067 37.124161 83.121233 36.885281 12.997259 -14.944512 2.742794 7.977505 30.984617 4.132046 10.837257 -17.795729 nan nan nan -5.425175 -13.193197 -29.896744 7.371997 -19.787795 72.252761 13.291903 3.362696 17.817001 nan nan nan -14.164949 2.161102 9.416356 5.086729 -4.320498 4.537186 2.950377 -3.669311 -2.423007 9.323294 -11.264907 17.447132 19.823117 -11.570503 9.679216 -17.272903 -11.958017 7.377377 -62.656374 -33.657944 23.877102 -26.759249 -64.382481 44.371307 30.859393 -23.193753 -39.405866 10.536418 -4.428466 7.587653 37.389450 -7.198288 -6.329307 -23.415792 50.576816 -26.334068 -25.689455 9.413421 -53.916903 
-20.621021 -23.498259 97.811584 -68.103305 35.956731 82.605239 35.884673 12.789701 -14.144770 2.701716 8.544869 30.699728 3.912150 10.997438 -17.708673 nan nan nan -3.945131 -12.661291 -28.368291 7.793921 -19.773236 69.713700 14.149575 4.058325 17.564310 nan nan nan -14.131342 2.377653 9.376601 4.794750 -4.242925 5.044816 2.834863 -3.348748 -2.617866 9.248103 -11.115697 17.153485 19.421232 -11.897754 9.756049 -17.017634 -11.780946 6.496536 -62.815822 -33.170136 24.193442 -26.347249 -64.990955 43.862325 30.167579 -23.371130 -39.544187 10.114908 -4.317041 6.725931 37.376423 -6.907573 -5.830364 -24.379658 51.581374 -26.511238 -24.977017 9.525885 -54.165616 
-20.555897 -23.554550 97.835457 -68.780269 34.789066 82.101739 34.826236 12.566450 -13.330097 2.697581 9.022029 30.379579 3.676978 11.051787 -17.645178 nan nan nan -2.560995 -12.348731 -26.661028 8.028732 -19.681384 67.162536 14.877788 4.780153 17.247277 nan nan nan -13.995520 2.522391 9.459433 4.397364 -4.239924 5.449168 2.724751 -2.999332 -2.846858 8.878987 -11.087382 17.312541 19.222465 -11.863141 9.581097 -16.800824 -11.721621 5.808657 -62.903191 -32.666410 24.260712 -25.876679 -65.711037 42.994581 29.330012 -23.605546 -39.637787 9.645109 -3.986978 6.197724 37.515344 -6.668905 -5.702144 -25.241646 52.454784 -26.802243 -23.772402 10.252063 -54.139471 
-20.492712 -23.635496 97.896088 -69.235881 33.738305 81.644500 33.852738 12.417247 -12.568134 2.587914 9.254826 30.064666 3.327762 11.072936 -17.569119 nan nan nan -1.211094 -12.284141 -24.722726 8.307471 -19.525383 64.544059 15.423657 5.312877 16.822463 nan nan nan -13.687527 2.609226 9.906071 4.035249 -4.281615 5.318706 2.617296 -2.709010 -2.922152 8.487180 -11.276109 17.448838 18.941154 -11.733515 9.687281 -16.743671 -11.711974 5.339207 -62.817847 -32.177864 24.142852 -25.586239 -66.316140 42.929738 28.853732 -24.009219 -39.371458 9.215935 -3.522893 5.862460 37.637746 -6.498047 -5.940400 -26.122234 53.209515 -26.704491 -22.133727 11.185234 -53.973803 
-20.433603 -23.737526 97.960548 -69.725859 32.727233 81.128655 32.943996 12.325537 -11.762679 2.468901 9.463262 29.817007 2.957297 11.006479 -17.528944 nan nan nan 0.099263 -12.318722 -22.733499 8.627571 -19.135041 61.925135 15.999029 5.820648 16.482992 nan nan nan -13.208382 2.824948 10.267327 3.683954 -4.262732 5.362337 2.465730 -2.446313 -2.966622 8.124218 -11.469576 17.265286 18.650186 -11.716503 9.842378 -16.695098 -11.882295 4.854297 -62.724425 -31.776045 23.956073 -25.135648 -66.796290 42.702483 28.002623 -24.718371 -38.763226 8.925926 -3.053322 5.469008 37.603646 -6.496031 -6.387465 -27.188772 53.915964 -26.909586 -20.214227 12.530012 -53.029487 
-20.373009 -23.870699 98.013451 -70.218665 31.642705 80.683633 31.925850 12.237931 -10.999500 2.399599 9.784252 29.587656 2.880116 10.910967 -17.493156 nan nan nan 1.212807 -12.457458 -20.761101 8.984110 -18.570942 59.252750 16.358125 6.384471 15.994582 nan nan nan -12.679829 3.081450 10.320137 3.319634 -4.233769 5.736532 2.282468 -2.195085 -3.025193 7.471027 -11.711247 17.258705 18.471084 -11.537402 9.612472 -16.647894 -12.170119 4.358610 -62.618867 -31.350208 23.819497 -24.529631 -67.479783 42.000585 26.321738 -24.855120 -38.278796 8.695575 -2.506165 5.209375 37.537099 -6.597608 -6.833303 -28.883475 54.556769 -28.199303 -17.764762 14.239311 -51.506930 
-20.278725 -24.007444 98.052132 -70.524152 30.393411 80.503285 30.641627 11.963210 -10.520481 2.454921 10.379656 29.450634 2.945515 10.698353 -17.410614 nan nan nan 1.926376 -12.528107 -18.960820 9.241026 -18.200775 56.630131 16.696935 6.916098 15.463853 nan nan nan -12.280433 3.323343 10.235378 2.958723 -4.285366 6.170040 2.030783 -1.989165 -3.170048 7.019633 -11.871248 17.205561 18.109379 -11.587918 9.490374 -16.485781 -12.426876 3.954598 -62.651097 -31.096731 23.831684 -23.664893 -68.245145 41.045321 24.979640 -25.461048 -37.920487 8.429620 -2.026765 4.982767 37.664679 -6.558722 -7.060959 -30.986517 55.046902 -29.545437 -15.438993 15.822154 -50.291178 
-20.094254 -24.002831 98.066109 -71.152217 28.903491 80.753729 29.161354 11.763756 -10.532073 2.423077 11.260399 29.367872 2.870132 10.688274 -17.197977 nan nan nan 2.661857 -12.098464 -18.241204 9.221662 -17.780986 54.466665 16.886869 7.169487 14.766441 nan nan nan -12.365026 3.684082 9.738000 2.739205 -4.110527 6.168482 1.855041 -1.834725 -3.099818 6.741472 -11.848473 16.868769 17.690818 -11.899347 9.516391 -16.076710 -12.506959 3.588774 -62.849615 -31.056588 24.049011 -22.842283 -68.950075 40.280658 24.195497 -26.047008 -37.494281 8.218752 -1.914936 4.632246 37.786909 -6.209432 -7.069333 -33.300781 55.609513 -30.792749 -13.281552 17.040087 -48.944952 
-19.983192 -24.148685 98.141533 -71.348510 27.694260 80.504469 27.905267 11.551959 -9.961210 2.317435 11.532425 29.124225 2.570348 10.577119 -17.036337 nan nan nan 3.265932 -12.228079 -16.392629 9.396472 -17.141592 51.919123 17.087744 7.428538 14.220979 nan nan nan -11.985430 3.938603 10.183867 2.481429 -4.090193 6.059363 1.760220 -1.703447 -3.073555 6.031748 -11.926832 16.760714 17.469050 -11.811021 9.320219 -15.886155 -12.613936 3.112668 -63.058559 -30.918206 24.164075 -22.446126 -69.558836 40.037056 23.798569 -26.354615 -37.213632 7.912350 -1.609119 4.206968 37.761924 -6.117093 -7.230696 -35.370471 56.314022 -32.106183 -11.375536 18.104007 -47.230485 
